<svg width="369" height="90" fill="none" xmlns="http://www.w3.org/2000/svg"><g clip-path="url(#a)" fill-rule="evenodd" clip-rule="evenodd"><path d="M136.977 31.613l.062.062V11.397c-.188-1.57-1.007-3.202-2.58-4.019-1.449-.69-3.209-.502-4.91-.564V1.478h20.896v5.336c-1.888.062-4.029-.313-5.223 1.256-1.321 1.507-1.385 3.557-1.385 5.523v34.09h-7.931l-23.348-32.77-.064-.064.064 23.922c0 1.422.692 2.574 1.951 3.2 1.572.63 3.525.317 5.349.317v5.396H98.523V42.29c2.097 0 5.035.415 5.917-1.51a7.052 7.052 0 00.786-3.641V11.145c-.316-1.38-.786-2.762-2.171-3.578-1.259-.815-2.958-.753-4.532-.753V1.478h17.686l20.768 30.135zm130.658 0l.064.062V11.397c-.19-1.57-1.007-3.202-2.58-4.019-1.448-.69-3.211-.502-4.909-.564V1.478h20.895v5.336c-1.888.062-4.028-.313-5.223 1.256-1.321 1.507-1.385 3.557-1.385 5.523v34.09h-7.933l-23.347-32.77-.064-.064.064 23.922c0 1.422.691 2.574 1.948 3.2 1.573.63 3.525.317 5.353.317v5.396h-21.339V42.29c2.1 0 5.036.415 5.917-1.51a7.022 7.022 0 00.786-3.641V11.145c-.314-1.38-.786-2.762-2.171-3.578-1.259-.815-2.957-.753-4.532-.753V1.478h17.688l20.768 30.135zm-42.294-24.8c-2.326-.06-5.096-.44-6.419 1.82-.627 1.07-.598 2.45-.662 3.768v25.992c.128 1.381.726 2.699 1.985 3.389 1.509.819 3.397.376 5.096.566v5.336h-23.853V42.29c2.14.06 4.596.438 6.104-1.256.632-.88.881-1.886.945-2.952V10.707c-.189-1.318-.691-2.763-2.012-3.453-.904-.44-3.37-.44-5.004-.44V1.478h23.82v5.336zm102.337 13.939h-5.413c.317-5.086-.25-10.109-4.782-12.746-1.259-.69-2.708-1.068-4.218-1.194h-12.541v13.876c3.132 0 7.143.25 8.636-2.135.692-1.63.508-3.735.508-5.65h4.845v21.599h-4.845c-.128-2.7.439-5.777-2.14-7.284-1.513-.784-4.581-.753-7.002-.753v15.823h14.617c2.519-.19 5.159-1.322 6.23-3.831 1.009-2.448.692-6.529.692-10.014h5.413v19.24h-43.867V42.29c2.456-.128 5.413.626 6.738-1.888.503-1.254.468-2.699.468-4.142V10.769c0-1.366-.722-2.7-2.043-3.453-1.513-.753-3.465-.376-5.163-.502V1.478h43.867v19.274z" fill="#303030"/><path d="M95.753 36.698c4.342-6.528 4.658-16.89.63-23.669-2.708-5.085-7.93-9.668-13.218-11.553-8.81-3.39-19.07-1.005-25.616 5.587-6.924 6.592-9.19 17.203-5.665 26.055 3.148 8.101 11.582 14.819 20.204 15.509 9.756.94 18.442-3.64 23.665-11.929zm93.527-35.22L187.642 3.3c-6.043-3.519-15.043-4.46-21.653-1.573-8.748 3.327-15.546 12.305-15.924 21.598-.693 9.417 3.903 18.143 12.335 22.475 6.986 3.768 18.19 4.334 24.673-.69l1.133 2.574h7.018V32.618l.283-1.507c.695-1.815 2.576-1.813 4.362-1.811.313 0 .623 0 .923-.009v-5.336h-22.214v5.336c.566.042 1.16.028 1.755.014 1.189-.028 2.378-.056 3.342.363a2.926 2.926 0 011.889 2.512c0 .264.004.552.008.854.027 2.041.063 4.733-1.015 5.299-3.525 3.957-9.44 4.961-14.224 3.014-5.727-2.384-8.81-8.35-9.691-13.938-.943-7.347.881-14.693 7.175-19.024 4.029-2.512 10.385-2.827 14.288.062 3.525 2.513 4.909 6.279 4.909 10.486h6.798V1.479h-4.532zm173.418 2.034c-.225.37-.448.738-.655 1.105-1.135-.817-2.206-1.57-3.402-2.135-6.419-3.201-15.86-2.699-21.523 1.759-4.656 3.641-5.917 9.418-4.596 14.942 2.03 6.668 8.687 7.911 14.694 9.033.892.166 1.77.33 2.616.509.756.183 1.563.33 2.387.48 3.703.677 7.723 1.41 8.753 5.673.44 2.765-1.195 5.213-3.461 6.469-4.532 2.324-10.386.943-14.287-1.635-3.779-2.322-5.413-6.151-5.537-10.295h-5.667v18.269h4.532l1.135-2.95c2.39 1.255 4.846 2.388 7.489 3.14 6.608 1.694 15.041 1.694 20.015-3.513 3.84-3.957 4.532-10.172 3.083-15.383-2.565-6.948-9.445-8.246-15.89-9.462-1.301-.245-2.584-.487-3.811-.772-2.076-.317-4.028-.817-5.791-1.886-1.444-1.004-2.389-2.45-2.389-4.144 0-1.758.881-3.201 2.389-4.27 3.401-2.322 8.685-1.881 12.336-.312 4.156 1.82 6.418 6.153 6.925 10.42h5.663V1.479c-.69 0-1.424.017-2.125.034-.639.015-1.25.03-1.775.03-.322.676-.718 1.327-1.108 1.97zM29.341 6.829c.784.037 1.564.074 2.28-.015V1.478H6.633v5.336c.588.023 1.193.02 1.8.017 1.017-.004 2.038-.009 2.984.109 1.007.187 2.233.815 2.423 1.945v27.5c0 1.446-.033 2.953-.724 4.147-1.081 1.849-3.13 1.806-5.152 1.765a27.01 27.01 0 00-1.333-.007v5.396H48.11v-19.84h-5.162l.003.933c.012 2.648.024 5.302-.822 7.606-2.095 6.177-8.228 6.033-14.037 5.897-1.515-.035-3.009-.07-4.403.008V11.963c-.062-1.194 0-2.45.63-3.39 1.037-1.934 3.042-1.838 5.022-1.744zm56.97 27.547c3.276-6.717 2.834-16.513-1.446-22.603-2.076-2.95-5.035-4.833-8.309-5.336-5.223-.753-9.88 1.697-12.525 6.154-4.09 6.592-4.154 17.015.064 23.543 2.266 3.766 6.105 6.28 10.511 6.215 5.098.254 9.755-3.452 11.706-7.973zm81.506 20.721c1.195 1.818 2.33 3.702 3.525 5.524l3.461-5.524h24.986c1.195 1.818 2.206 3.702 3.461 5.524l3.461-5.495h67.342l-9.501 6.623h-13.093l-6.294 4.46H232.83l-6.355 4.895h-12.464l-6.041 4.52h-10.259v14.317h-20.878V75.657h-10.212l-6.105-4.553h-12.399l-6.42-4.894h-12.272l-6.294-4.461h-13.154l-9.442-6.652h67.282z" fill="#303030"/><path d="M167.817 55.097c1.195 1.818 2.33 3.702 3.525 5.524l3.461-5.524h24.986c1.195 1.818 2.206 3.702 3.461 5.524l3.461-5.495h67.342l-9.501 6.623h-13.093l-6.294 4.46H232.83l-6.355 4.895h-12.464l-6.041 4.52h-10.259v14.317h-20.878V75.657h-10.212l-6.105-4.553h-12.399l-6.42-4.894h-12.272l-6.294-4.461h-13.154l-9.442-6.652h67.282z" fill="#303030"/><path d="M171.215 64.386c1.762-2.384 3.273-5.023 5.035-7.471h22.152c1.639 2.514 3.337 5.023 4.974 7.535l4.592-7.535h60.357l-5.036 2.886h-35.936c-.757.756-1.573 1.291-2.39 2.042h22.152l-3.271 2.669h-28.888l-2.076 1.916h16.299l-3.651 2.763h-20.955l-2.266 1.977 8.053.063-3.461 2.51h-9.188V60.337h-20.878V73.74h-9.141c-1.133-.88-2.33-1.63-3.399-2.51h7.993c-.566-.755-1.573-1.256-2.266-2.011h-20.896c-1.233-.9-2.45-1.82-3.651-2.763h16.174c-.504-.626-1.321-1.381-2.014-1.947h-28.887a136.576 136.576 0 01-3.335-2.638h22.217v-.06l-2.392-2.01h-35.938l-4.972-2.887h60.295l4.594 7.471z" fill="#fff"/><path d="M192.929 65.708h-11.078l-2.644-3.77h16.302l-2.58 3.77zm-6.546 9.165l-7.551 10.547V64.7c2.453 3.392 5.095 6.72 7.551 10.173zm2.14-.064c2.202-3.388 4.722-6.717 7.112-10.108v19.966l-7.112-9.858zm-1.007-1.445l-4.28-5.773h8.31l-4.03 5.773zm-4.532 9.324l4.406-6.434 4.594 6.434h-9zm10.325 1.917c1.007 1.192 1.948 2.478 2.893 3.67h-17.37l2.579-3.67h11.898z" fill="#fff"/></g><defs><clipPath id="a"><path fill="#fff" d="M0 0h369v90H0z"/></clipPath></defs></svg>