<svg display="none" xmlns="http://www.w3.org/2000/svg">

    <symbol id="calendar" viewBox="0 0 512 512">
        <path d="M405.3,42.7H384V21.3C384,9.6,374.4,0,362.7,0c-11.8,0-21.3,9.6-21.3,21.3v21.3H170.7V21.3
	c0-11.8-9.6-21.3-21.3-21.3S128,9.6,128,21.3v21.3h-21.3C47.8,42.7,0.1,90.5,0,149.3v256C0.1,464.2,47.8,511.9,106.7,512h298.7
	c58.9-0.1,106.6-47.8,106.7-106.7v-256C511.9,90.5,464.2,42.7,405.3,42.7z M42.7,149.3c0-35.3,28.7-64,64-64h298.7
	c35.3,0,64,28.7,64,64v21.3H42.7V149.3z M405.3,469.3H106.7c-35.3,0-64-28.7-64-64v-192h426.7v192
	C469.3,440.7,440.7,469.3,405.3,469.3z"/>
        <circle cx="256" cy="320" r="32"/>
        <circle cx="149.3" cy="320" r="32"/>
        <circle cx="362.7" cy="320" r="32"/>
    </symbol>

    <symbol id="search" viewBox="0 0 513.749 513.749">
        <g>
            <path
                    d="M504.352,459.061l-99.435-99.477c74.402-99.427,54.115-240.344-45.312-314.746S119.261-9.277,44.859,90.15   S-9.256,330.494,90.171,404.896c79.868,59.766,189.565,59.766,269.434,0l99.477,99.477c12.501,12.501,32.769,12.501,45.269,0   c12.501-12.501,12.501-32.769,0-45.269L504.352,459.061z M225.717,385.696c-88.366,0-160-71.634-160-160s71.634-160,160-160   s160,71.634,160,160C385.623,314.022,314.044,385.602,225.717,385.696z"/>
        </g>
    </symbol>

    <symbol id="arrow-right" viewBox="0 0 512.1 291.2">
        <path d="M407.3,282.2l83.6-83.6c28.2-29.6,28.2-76,0-105.6L407.3,9.4c-12.5-12.5-32.8-12.5-45.3,0s-12.5,32.8,0,45.3
	l0,0l59.3,59.3L32,114.4c-17.7,0-32,14.3-32,32l0,0c0,17.7,14.3,32,32,32l388.9-0.5l-58.9,59c-12.3,12.7-11.9,33,0.8,45.2
	C375.2,294.2,394.9,294.2,407.3,282.2L407.3,282.2z"/>
    </symbol>

    <symbol id="close" viewBox="0 0 512.021 512.021">
        <g>
            <path
                    d="M301.258,256.01L502.645,54.645c12.501-12.501,12.501-32.769,0-45.269c-12.501-12.501-32.769-12.501-45.269,0l0,0   L256.01,210.762L54.645,9.376c-12.501-12.501-32.769-12.501-45.269,0s-12.501,32.769,0,45.269L210.762,256.01L9.376,457.376   c-12.501,12.501-12.501,32.769,0,45.269s32.769,12.501,45.269,0L256.01,301.258l201.365,201.387   c12.501,12.501,32.769,12.501,45.269,0c12.501-12.501,12.501-32.769,0-45.269L301.258,256.01z"/>
        </g>
    </symbol>

    <symbol id="arrow-top" viewBox="0 0 512 270">
        <path d="M45.2,269.8L248.3,66.9c4.2-4.2,10.9-4.2,15.1,0L466.8,270l45.2-45.1L308.7,21.8c-29.2-29.1-76.4-29.1-105.6,0L0,224.6
	L45.2,269.8z"/>
    </symbol>

</svg>